<svg width="184" height="57" viewBox="0 0 184 57" fill="none" xmlns="http://www.w3.org/2000/svg">
<path d="M42.6372 21.1812L31.4379 12.4784C30.4551 11.7145 29.2454 11.2998 28.0002 11.2998C26.755 11.2998 25.5453 11.7145 24.5625 12.4784L13.3611 21.1812C12.6879 21.7042 12.1433 22.374 11.7688 23.1394C11.3943 23.9048 11.1998 24.7456 11.2002 25.5976V40.7037C11.2002 41.8166 11.6427 42.8839 12.4303 43.6708C13.218 44.4577 14.2863 44.8998 15.4002 44.8998H40.6002C41.7141 44.8998 42.7824 44.4577 43.57 43.6708C44.3577 42.8839 44.8002 41.8166 44.8002 40.7037V25.5976C44.8002 23.8709 44.0022 22.2407 42.6372 21.1812Z" fill="white" stroke="white" stroke-width="4.2" stroke-linecap="round" stroke-linejoin="round"/>
<path d="M36.4006 32.2998C31.7596 35.0998 24.2374 35.0998 19.6006 32.2998" stroke="#123E56" stroke-width="4.2" stroke-linecap="round" stroke-linejoin="round"/>
<path d="M56.4704 42.5996L63.2912 15.826H72.7384L79.52 42.5996H74.1104L72.6208 37.19H63.252L61.8408 42.5996H56.4704ZM64.1144 32.8388H71.8368L68.8184 20.2164H67.172L64.1144 32.8388ZM82.4719 42.5996V15.826H99.7591V20.3732H87.8815V28.4484H97.6031V32.9956H87.8815V42.5996H82.4719ZM98.886 42.5996L105.707 15.826H115.154L121.936 42.5996H116.526L115.036 37.19H105.668L104.256 42.5996H98.886ZM106.53 32.8388H114.252L111.234 20.2164H109.588L106.53 32.8388ZM122.888 42.5996L129.709 15.826H139.156L145.938 42.5996H140.528L139.039 37.19H129.67L128.259 42.5996H122.888ZM130.532 32.8388H138.255L135.236 20.2164H133.59L130.532 32.8388Z" fill="white"/>
<path d="M164.972 48.5188L161.405 42.7956C161.065 42.874 160.686 42.9263 160.268 42.9524C159.85 43.0047 159.419 43.0308 158.974 43.0308C156.126 43.0308 153.865 42.5343 152.193 41.5412C150.546 40.5481 149.37 39.0324 148.665 36.994C147.959 34.9556 147.606 32.3945 147.606 29.3108C147.606 26.2009 147.959 23.6268 148.665 21.5884C149.37 19.5239 150.546 17.9689 152.193 16.9236C153.865 15.8783 156.126 15.3556 158.974 15.3556C161.823 15.3556 164.07 15.8783 165.717 16.9236C167.389 17.9428 168.578 19.4847 169.284 21.5492C170.016 23.6137 170.382 26.2009 170.382 29.3108C170.382 32.29 170.068 34.7727 169.441 36.7588C168.814 38.7188 167.729 40.2084 166.187 41.2276L169.441 46.3628L164.972 48.5188ZM158.974 38.4836C160.621 38.4836 161.862 38.1569 162.698 37.5036C163.535 36.8241 164.097 35.8049 164.384 34.446C164.698 33.0609 164.854 31.3492 164.854 29.3108C164.854 27.2985 164.698 25.5999 164.384 24.2148C164.097 22.8036 163.522 21.7321 162.659 21.0004C161.823 20.2687 160.595 19.9028 158.974 19.9028C157.354 19.9028 156.113 20.2687 155.25 21.0004C154.414 21.7321 153.826 22.7905 153.486 24.1756C153.173 25.5607 153.016 27.2724 153.016 29.3108C153.016 31.3231 153.173 33.0217 153.486 34.4068C153.8 35.7657 154.375 36.7849 155.211 37.4644C156.074 38.1439 157.328 38.4836 158.974 38.4836Z" fill="#DE8556"/>
</svg>
